<svg version="1.1" id="Layer_1" xmlns="http://www.w3.org/2000/svg" xmlns:xlink="http://www.w3.org/1999/xlink" x="0px" y="0px"
	 width="100%" viewBox="0 0 1898 509" enable-background="new 0 0 1898 509" xml:space="preserve">
<path opacity="1.000000" stroke="none" 
	d="
M1256.000000,510.000000 
	C837.333313,510.000000 419.166656,510.000000 1.000000,510.000000 
	C1.000000,340.333344 1.000000,170.666672 1.000000,1.000000 
	C633.666687,1.000000 1266.333374,1.000000 1899.000000,1.000000 
	C1899.000000,170.666672 1899.000000,340.333344 1899.000000,510.000000 
	C1684.833374,510.000000 1470.666626,510.000000 1256.000000,510.000000 
M194.919708,269.970825 
	C199.641052,269.670441 204.362396,269.370056 209.830246,269.341339 
	C216.507401,270.692017 223.313797,271.598816 229.831650,273.496552 
	C239.822937,276.405518 247.748260,282.799530 255.234634,290.727509 
	C262.018066,298.337341 266.062073,307.367950 268.978607,317.906799 
	C268.985840,323.751862 269.250671,329.612030 268.909546,335.436707 
	C268.683044,339.303375 267.589752,343.119263 266.260559,347.332764 
	C263.344910,357.197968 257.112701,365.073486 250.285507,373.224701 
	C243.783264,380.650024 235.861084,386.186432 226.509750,390.936432 
	C218.340637,393.013123 210.171524,395.089813 201.085739,397.029358 
	C195.199753,396.593353 189.225342,396.653229 183.445419,395.622437 
	C169.632324,393.158997 156.622787,388.209381 143.963303,382.154816 
	C141.084198,380.777832 137.316269,381.259247 133.229202,380.980865 
	C131.136551,382.284760 129.043884,383.588654 126.327637,385.186005 
	C125.273933,387.124329 124.220230,389.062653 123.029503,391.867950 
	C123.075104,393.911774 123.120705,395.955566 123.244019,398.685425 
	C124.884773,401.123444 126.525520,403.561493 128.228180,406.660614 
	C131.113770,409.454559 133.999359,412.248505 137.168945,415.654236 
	C141.096771,419.138885 145.024582,422.623505 149.233795,426.724609 
	C169.004791,442.677704 191.177826,451.879211 217.903976,450.972015 
	C222.268616,450.592621 226.633255,450.213226 231.791397,449.968475 
	C234.918610,449.249908 238.045822,448.531372 242.026154,447.875275 
	C245.225311,446.704071 248.424484,445.532837 252.311813,444.143494 
	C254.909363,443.112885 257.506927,442.082275 260.827576,440.987152 
	C263.180450,439.772369 265.533295,438.557556 268.408142,437.025482 
	C269.973663,436.034088 271.539185,435.042694 273.731903,433.768066 
	C276.153381,432.123230 278.574860,430.478394 281.666290,428.764801 
	C286.478760,424.527039 291.291260,420.289246 296.714569,415.775238 
	C301.827148,409.217804 306.939758,402.660400 312.682739,395.802155 
	C317.399780,386.534668 322.116791,377.267181 326.991730,367.236359 
	C329.034821,357.836151 331.077881,348.435944 333.815002,338.529327 
	C333.821228,331.352539 333.827484,324.175720 333.939850,316.181030 
	C332.904663,311.454346 331.869476,306.727631 330.968445,301.202637 
	C329.256622,295.802002 327.544830,290.401367 325.730072,284.282135 
	C320.526825,275.176270 315.323578,266.070404 309.827332,256.334778 
	C305.906555,251.585663 301.985779,246.836548 298.677765,241.813049 
	C300.153412,240.559082 301.629059,239.305115 303.701935,237.793213 
	C304.841095,236.874878 305.980255,235.956543 307.679016,234.808228 
	C308.468781,233.908127 309.258545,233.008041 310.665466,231.819199 
	C312.816833,229.558807 314.968201,227.298401 317.647614,224.836655 
	C318.114105,224.260651 318.580566,223.684662 319.646057,222.836151 
	C321.132141,221.241058 322.618225,219.645966 324.698883,217.730560 
	C326.149506,215.521851 327.600098,213.313156 329.677826,210.807037 
	C332.135803,206.905899 334.593750,203.004745 337.688965,198.796661 
	C341.258118,191.486374 344.827240,184.176071 348.898499,176.258942 
	C357.334106,156.364517 360.476898,135.299423 360.719971,114.005363 
	C360.874451,100.471230 358.555206,86.875725 356.872589,73.366623 
	C355.917236,65.696411 349.044250,60.027351 341.501251,60.024082 
	C254.194687,59.986233 166.888138,59.989616 79.581589,60.019459 
	C72.645950,60.021832 66.499893,64.173111 65.088181,71.043526 
	C62.891800,81.732613 61.261852,92.578239 60.158031,103.435425 
	C59.569931,109.219940 60.590454,115.168007 60.979103,121.947029 
	C61.654930,128.268402 61.676632,134.747269 63.152321,140.876053 
	C65.678024,151.365692 69.113838,161.636169 72.047997,172.752045 
	C76.327118,181.515320 80.606239,190.278580 84.997612,199.753174 
	C89.959686,206.516235 94.921761,213.279297 99.994873,220.735916 
	C105.625160,226.171555 111.255440,231.607178 117.168983,237.654404 
	C119.078270,239.121674 120.987556,240.588943 122.786865,242.663498 
	C121.841454,243.739975 120.896034,244.816452 119.340218,246.175156 
	C118.191589,247.766693 117.042961,249.358231 115.289551,251.221909 
	C113.843369,253.112518 112.397194,255.003128 110.333176,257.238678 
	C108.204773,261.457886 106.076378,265.677124 103.322639,270.251129 
	C100.603951,277.834869 97.885262,285.418640 95.026749,293.835419 
	C94.657387,296.575623 94.363747,299.328583 93.906212,302.053955 
	C91.201393,318.165558 93.987427,333.575989 99.935585,348.541107 
	C101.787987,353.201660 105.635483,354.593750 110.465714,354.263855 
	C115.616379,353.912048 118.420044,351.552551 120.149223,346.484772 
	C124.001488,335.194855 128.561722,324.146545 133.151047,312.359100 
	C137.117554,306.607941 141.084045,300.856781 145.662964,294.824951 
	C149.731934,291.342773 153.800903,287.860596 158.389008,284.039490 
	C160.630341,282.374023 162.871674,280.708557 165.814560,278.988922 
	C167.421036,278.117767 169.027527,277.246613 171.305878,276.148193 
	C173.220779,275.467255 175.135681,274.786346 177.790771,274.017090 
	C179.541336,273.382782 181.291901,272.748505 183.869568,272.019531 
	C187.245468,271.290955 190.621384,270.562347 194.919708,269.970825 
M1814.072754,164.027344 
	C1807.048706,164.073868 1800.024536,164.120392 1792.077393,164.027817 
	C1788.288818,164.019257 1784.411865,163.518280 1780.743408,164.177765 
	C1778.354736,164.607132 1775.030273,166.246475 1774.285278,168.177277 
	C1772.218262,173.534027 1771.281738,179.327011 1769.247559,185.361191 
	C1766.141235,197.279831 1763.040649,209.199936 1759.927368,221.116745 
	C1755.586670,237.730591 1751.236572,254.341980 1746.237915,271.375824 
	C1746.046021,272.506958 1745.940308,273.660797 1745.649292,274.765839 
	C1739.763184,297.114227 1733.883057,319.464294 1727.929443,341.794739 
	C1726.764404,346.164154 1725.298340,350.453247 1723.582275,356.046783 
	C1722.377686,353.076752 1721.744263,351.515167 1721.019897,349.141724 
	C1720.996826,348.478119 1721.099609,347.780792 1720.932373,347.155762 
	C1716.235596,329.604492 1711.553223,312.049194 1706.780273,294.518555 
	C1702.279175,277.985931 1697.677979,261.480591 1693.020996,244.143585 
	C1693.009644,243.645172 1693.097168,243.120392 1692.972534,242.652145 
	C1686.537598,218.492279 1680.188110,194.308365 1673.470459,170.227173 
	C1672.815918,167.880783 1669.878052,166.171371 1667.071411,164.028732 
	C1657.713867,164.074738 1648.356323,164.120758 1638.070679,164.029541 
	C1631.434570,164.019638 1624.764160,163.620926 1618.180542,164.203827 
	C1615.769165,164.417328 1612.254150,166.482849 1611.512451,168.527008 
	C1609.372437,174.425476 1608.387817,180.743225 1606.284790,187.318985 
	C1606.178589,188.138321 1606.160767,188.980789 1605.953491,189.773651 
	C1599.128906,215.883942 1592.236938,241.976730 1585.470581,268.102020 
	C1582.821655,278.329559 1580.448975,288.628632 1577.293457,299.302368 
	C1572.494141,317.783569 1567.694946,336.264740 1562.652344,355.682678 
	C1561.796021,353.938232 1561.242065,353.153656 1561.010620,352.283356 
	C1559.304565,345.863220 1557.680054,339.421417 1555.996460,332.995209 
	C1553.289062,322.660828 1550.555908,312.333221 1547.967163,301.198639 
	C1541.287964,274.113159 1534.660400,247.014801 1527.909668,219.947128 
	C1524.079346,204.588669 1520.046997,189.280563 1516.017212,173.155914 
	C1515.005371,165.658264 1513.150879,163.984299 1505.729736,164.007874 
	C1499.486206,164.027695 1493.242920,164.111252 1486.071045,164.028778 
	C1475.430908,164.019135 1464.790405,163.950821 1454.150757,164.025711 
	C1449.174438,164.060760 1446.999268,167.059464 1448.365112,171.762146 
	C1453.253418,188.592117 1458.163452,205.415848 1463.082642,222.236847 
	C1467.728149,238.121735 1472.333984,254.018631 1477.076660,269.874512 
	C1479.896484,279.301910 1482.946899,288.660309 1485.983765,298.849670 
	C1487.298340,303.520721 1488.591187,308.197998 1489.931274,312.861664 
	C1494.630859,329.217590 1499.269653,345.591644 1504.086792,361.913025 
	C1506.868408,371.337463 1509.947632,380.674072 1512.980225,390.858154 
	C1518.011108,408.292206 1522.988403,425.742279 1528.188110,443.125793 
	C1528.552734,444.344757 1530.479858,445.740204 1531.822510,445.906494 
	C1536.514160,446.487488 1541.268066,446.564972 1546.927002,446.972748 
	C1557.617798,446.926178 1568.308716,446.879608 1579.911011,446.971344 
	C1582.402710,446.981079 1584.894409,446.984100 1587.386108,447.001984 
	C1592.089478,447.035797 1595.107544,444.862427 1596.322144,440.258698 
	C1600.915161,422.849487 1605.519653,405.443298 1610.769897,387.613953 
	C1616.041138,367.358154 1621.306641,347.100861 1626.585205,326.846985 
	C1631.085693,309.578064 1635.601074,292.312988 1640.734741,274.670837 
	C1641.097412,273.774994 1641.459961,272.879150 1642.238037,270.956940 
	C1643.732178,275.787506 1644.914307,279.447235 1645.997070,283.136108 
	C1652.640259,305.769073 1659.261108,328.408661 1665.983398,351.845612 
	C1667.657349,357.951630 1669.238770,364.084808 1671.021484,370.158875 
	C1677.275391,391.467285 1683.598633,412.755280 1689.984375,434.841431 
	C1690.319336,436.093414 1690.685791,437.337952 1690.983765,438.598694 
	C1692.519287,445.098206 1694.854980,446.998718 1701.531860,446.989868 
	C1707.354614,446.982117 1713.177368,446.889221 1719.928711,446.971069 
	C1729.286255,446.924988 1738.643677,446.878876 1748.862671,446.969086 
	C1759.136108,447.273926 1759.376831,444.572906 1761.290649,437.528839 
	C1764.975830,423.965790 1769.141846,410.533447 1773.755249,396.634979 
	C1773.868896,395.652130 1773.836304,394.625214 1774.117676,393.692963 
	C1779.210449,376.814575 1784.402344,359.965820 1789.433105,343.069061 
	C1791.409546,336.430511 1793.043213,329.689911 1795.180420,322.315521 
	C1800.455322,304.824554 1805.777832,287.347656 1810.979614,269.834991 
	C1812.820679,263.636658 1814.368042,257.351074 1816.701050,250.707855 
	C1817.781982,247.135803 1818.876099,243.567688 1819.941895,239.991089 
	C1826.528931,217.885696 1833.132935,195.785294 1839.675171,173.666672 
	C1841.283936,168.228088 1838.873657,165.163513 1833.230957,164.981018 
	C1827.151733,164.784393 1821.077148,164.444458 1814.072754,164.027344 
M1186.012573,234.573837 
	C1175.638672,274.413727 1165.264771,314.253632 1154.890869,354.093536 
	C1153.070923,352.840515 1152.348511,351.748627 1152.052856,350.551331 
	C1142.336792,311.206299 1132.719238,271.836823 1122.956909,232.503311 
	C1117.783691,211.659973 1112.292114,190.895660 1107.124512,170.050964 
	C1106.002686,165.526123 1103.419678,163.948700 1099.038086,163.967911 
	C1081.372803,164.045441 1063.706787,163.987335 1046.041138,164.008316 
	C1041.109863,164.014175 1039.006958,166.802368 1040.367676,171.704407 
	C1041.411133,175.463577 1042.818970,179.120346 1043.912354,182.867111 
	C1052.250732,211.440491 1060.521118,240.033661 1068.874878,268.602539 
	C1074.171265,286.715607 1079.612305,304.786407 1084.919922,322.896271 
	C1091.964966,346.934662 1098.924072,370.998260 1105.956665,395.040314 
	C1110.249390,409.715912 1114.683105,424.350647 1118.909058,439.045258 
	C1120.780396,445.552216 1122.177856,446.963165 1128.674072,446.982819 
	C1145.506348,447.033722 1162.339111,446.960205 1179.171265,447.024414 
	C1184.164795,447.043457 1187.239014,444.741852 1188.494507,439.999603 
	C1189.536011,436.065125 1190.367920,432.074860 1191.422729,428.144196 
	C1198.927368,400.177185 1206.536499,372.238007 1213.970825,344.252350 
	C1220.110840,321.139313 1226.042236,297.970917 1232.134155,274.844971 
	C1232.415649,273.776733 1233.365601,272.884613 1234.417603,271.279938 
	C1237.764526,282.774567 1240.863281,293.382935 1243.941895,303.997131 
	C1249.289551,322.433807 1254.654907,340.865356 1259.957642,359.314911 
	C1267.731323,386.360718 1275.528809,413.400116 1283.132935,440.493652 
	C1284.439575,445.149048 1287.376709,446.944153 1291.688599,446.964233 
	C1309.187256,447.045776 1326.687256,447.085205 1344.184937,446.929321 
	C1347.902222,446.896210 1350.865845,445.428711 1352.115479,441.119263 
	C1358.276245,419.875397 1364.653564,398.694092 1371.008911,377.507019 
	C1376.945068,357.717896 1383.043579,337.977112 1388.902710,318.165283 
	C1398.635376,285.255463 1408.233032,252.305664 1417.889038,219.373138 
	C1422.421021,203.916214 1426.987305,188.469299 1431.468994,172.997803 
	C1432.713257,168.702484 1430.363037,165.217590 1426.239136,165.010284 
	C1418.973511,164.645035 1411.707886,164.158478 1404.437134,164.042053 
	C1394.107056,163.876602 1383.766846,164.199509 1373.441895,163.913986 
	C1368.444092,163.775787 1366.144287,166.369614 1365.050903,170.531387 
	C1360.255981,188.783691 1355.707275,207.101334 1350.831665,225.331696 
	C1339.988403,265.875275 1329.005005,306.381439 1318.068848,346.900146 
	C1317.365479,349.505859 1316.577759,352.088776 1315.453857,355.983215 
	C1314.576294,353.803406 1314.205566,353.098114 1314.002686,352.347382 
	C1307.002197,326.442078 1299.922363,300.557617 1293.054077,274.617188 
	C1283.935303,240.176147 1274.989502,205.689331 1265.954346,171.226135 
	C1264.497681,165.669586 1262.292725,164.008667 1256.468750,164.003891 
	C1242.136230,163.992096 1227.803711,163.999817 1213.471191,164.000092 
	C1204.720947,164.000259 1204.167603,164.664261 1201.949707,173.310623 
	C1196.775513,193.481537 1191.388916,213.597900 1186.012573,234.573837 
M774.999207,258.555511 
	C773.666809,267.609741 771.444641,276.637817 771.177612,285.723358 
	C770.513550,308.316254 770.499573,330.896393 775.919800,353.164276 
	C782.890747,381.802979 795.369263,406.930542 819.031677,425.557434 
	C839.085327,441.343597 862.151550,449.265381 887.299316,450.833649 
	C901.094421,451.693878 914.906189,451.081940 928.680481,448.175720 
	C954.577271,442.711823 976.202393,430.060883 993.073303,410.136993 
	C1013.769836,385.695312 1021.898438,355.993988 1024.846680,324.779144 
	C1025.816895,314.505951 1024.871338,304.061981 1025.032593,293.699707 
	C1025.241455,280.298401 1023.381775,267.140442 1019.882690,254.297531 
	C1012.704041,227.949387 1001.072327,204.271317 979.183960,186.548798 
	C959.006958,170.211990 935.835266,161.933975 910.354065,160.171783 
	C896.394592,159.206406 882.394287,160.019592 868.478210,162.863510 
	C831.245483,170.472473 803.450134,190.631195 786.434509,224.560867 
	C781.244080,234.910889 778.744019,246.610153 774.999207,258.555511 
M541.000000,262.500000 
	C541.000000,251.171494 541.140991,239.840408 540.932251,228.515747 
	C540.845947,223.831497 541.983582,221.756943 547.296875,221.873550 
	C563.282532,222.224289 579.280945,222.038895 595.274109,221.982300 
	C602.528625,221.956619 604.999023,219.390701 604.999634,212.231567 
	C605.000793,199.070374 605.001099,185.909164 604.999634,172.747971 
	C604.998779,165.075562 603.893066,164.000626 596.006958,164.000229 
	C579.680420,163.999405 563.352905,163.903275 547.027893,164.062119 
	C542.461670,164.106537 540.555115,162.308777 540.999207,157.849899 
	C541.682251,150.993103 541.754272,144.006973 543.178772,137.308212 
	C545.439087,126.679497 551.193481,118.989235 562.468079,115.676956 
	C573.533081,112.426247 584.680298,113.196632 595.857178,113.008041 
	C601.928955,112.905586 603.970947,111.017509 603.988647,105.106453 
	C604.026062,92.611748 604.032715,80.116730 603.984558,67.622108 
	C603.963623,62.193138 601.897156,60.027691 596.585144,60.021084 
	C574.457214,59.993568 552.292053,59.300129 530.434692,63.979889 
	C519.113037,66.403908 508.514221,70.361717 499.580017,77.952003 
	C485.088989,90.263184 480.087036,107.116455 478.155151,125.013153 
	C476.985229,135.851135 477.130188,146.852325 477.092957,157.781570 
	C477.076385,162.643265 475.173950,164.170929 470.539520,164.067093 
	C460.715179,163.847000 450.882446,163.976501 441.053314,164.008759 
	C435.034882,164.028503 433.024719,166.010254 433.010162,171.983261 
	C432.977692,185.310974 432.995453,198.638824 433.001740,211.966629 
	C433.005310,219.446655 435.508850,221.958038 443.108002,221.991043 
	C451.937531,222.029404 460.767303,221.999573 469.596985,222.000137 
	C476.992889,222.000610 476.998932,222.001099 476.999084,229.404770 
	C477.000641,299.209137 476.999329,369.013489 477.001129,438.817841 
	C477.001282,445.179993 478.778839,446.983215 485.205170,446.992523 
	C501.031921,447.015381 516.858704,447.013794 532.685486,446.993469 
	C539.331665,446.984955 540.999390,445.236084 540.999451,438.427368 
	C541.000366,380.118256 541.000000,321.809113 541.000000,262.500000 
M699.499451,60.000000 
	C688.836548,60.000004 678.173584,59.987743 667.510681,60.004425 
	C660.657532,60.015144 658.003967,62.686913 658.003662,69.598312 
	C657.998535,192.221939 657.998352,314.845581 658.004211,437.469208 
	C658.004517,444.337372 660.678589,446.989990 667.578186,446.995911 
	C682.906128,447.009064 698.234131,447.002045 713.562073,446.999176 
	C721.453308,446.997681 722.999390,445.425049 722.999451,437.401672 
	C723.000244,314.778046 723.000061,192.154404 723.000000,69.530777 
	C723.000000,68.697739 723.028870,67.863487 722.994568,67.031853 
	C722.796936,62.238651 720.776245,60.124409 715.993103,60.024834 
	C710.830444,59.917358 705.663879,60.000183 699.499451,60.000000 
z"/>
<path fill="#03FFFE" opacity="1.000000" stroke="none" 
	d="
M1186.050415,234.155090 
	C1191.388916,213.597900 1196.775513,193.481537 1201.949707,173.310623 
	C1204.167603,164.664261 1204.720947,164.000259 1213.471191,164.000092 
	C1227.803711,163.999817 1242.136230,163.992096 1256.468750,164.003891 
	C1262.292725,164.008667 1264.497681,165.669586 1265.954346,171.226135 
	C1274.989502,205.689331 1283.935303,240.176147 1293.054077,274.617188 
	C1299.922363,300.557617 1307.002197,326.442078 1314.002686,352.347382 
	C1314.205566,353.098114 1314.576294,353.803406 1315.453857,355.983215 
	C1316.577759,352.088776 1317.365479,349.505859 1318.068848,346.900146 
	C1329.005005,306.381439 1339.988403,265.875275 1350.831665,225.331696 
	C1355.707275,207.101334 1360.255981,188.783691 1365.050903,170.531387 
	C1366.144287,166.369614 1368.444092,163.775787 1373.441895,163.913986 
	C1383.766846,164.199509 1394.107056,163.876602 1404.437134,164.042053 
	C1411.707886,164.158478 1418.973511,164.645035 1426.239136,165.010284 
	C1430.363037,165.217590 1432.713257,168.702484 1431.468994,172.997803 
	C1426.987305,188.469299 1422.421021,203.916214 1417.889038,219.373138 
	C1408.233032,252.305664 1398.635376,285.255463 1388.902710,318.165283 
	C1383.043579,337.977112 1376.945068,357.717896 1371.008911,377.507019 
	C1364.653564,398.694092 1358.276245,419.875397 1352.115479,441.119263 
	C1350.865845,445.428711 1347.902222,446.896210 1344.184937,446.929321 
	C1326.687256,447.085205 1309.187256,447.045776 1291.688599,446.964233 
	C1287.376709,446.944153 1284.439575,445.149048 1283.132935,440.493652 
	C1275.528809,413.400116 1267.731323,386.360718 1259.957642,359.314911 
	C1254.654907,340.865356 1249.289551,322.433807 1243.941895,303.997131 
	C1240.863281,293.382935 1237.764526,282.774567 1234.417603,271.279938 
	C1233.365601,272.884613 1232.415649,273.776733 1232.134155,274.844971 
	C1226.042236,297.970917 1220.110840,321.139313 1213.970825,344.252350 
	C1206.536499,372.238007 1198.927368,400.177185 1191.422729,428.144196 
	C1190.367920,432.074860 1189.536011,436.065125 1188.494507,439.999603 
	C1187.239014,444.741852 1184.164795,447.043457 1179.171265,447.024414 
	C1162.339111,446.960205 1145.506348,447.033722 1128.674072,446.982819 
	C1122.177856,446.963165 1120.780396,445.552216 1118.909058,439.045258 
	C1114.683105,424.350647 1110.249390,409.715912 1105.956665,395.040314 
	C1098.924072,370.998260 1091.964966,346.934662 1084.919922,322.896271 
	C1079.612305,304.786407 1074.171265,286.715607 1068.874878,268.602539 
	C1060.521118,240.033661 1052.250732,211.440491 1043.912354,182.867111 
	C1042.818970,179.120346 1041.411133,175.463577 1040.367676,171.704407 
	C1039.006958,166.802368 1041.109863,164.014175 1046.041138,164.008316 
	C1063.706787,163.987335 1081.372803,164.045441 1099.038086,163.967911 
	C1103.419678,163.948700 1106.002686,165.526123 1107.124512,170.050964 
	C1112.292114,190.895660 1117.783691,211.659973 1122.956909,232.503311 
	C1132.719238,271.836823 1142.336792,311.206299 1152.052856,350.551331 
	C1152.348511,351.748627 1153.070923,352.840515 1154.890869,354.093536 
	C1165.264771,314.253632 1175.638672,274.413727 1186.050415,234.155090 
z"/>
<path fill="#03FFFE" opacity="1.000000" stroke="none" 
	d="
M775.005493,258.123474 
	C778.744019,246.610153 781.244080,234.910889 786.434509,224.560867 
	C803.450134,190.631195 831.245483,170.472473 868.478210,162.863510 
	C882.394287,160.019592 896.394592,159.206406 910.354065,160.171783 
	C935.835266,161.933975 959.006958,170.211990 979.183960,186.548798 
	C1001.072327,204.271317 1012.704041,227.949387 1019.882690,254.297531 
	C1023.381775,267.140442 1025.241455,280.298401 1025.032593,293.699707 
	C1024.871338,304.061981 1025.816895,314.505951 1024.846680,324.779144 
	C1021.898438,355.993988 1013.769836,385.695312 993.073303,410.136993 
	C976.202393,430.060883 954.577271,442.711823 928.680481,448.175720 
	C914.906189,451.081940 901.094421,451.693878 887.299316,450.833649 
	C862.151550,449.265381 839.085327,441.343597 819.031677,425.557434 
	C795.369263,406.930542 782.890747,381.802979 775.919800,353.164276 
	C770.499573,330.896393 770.513550,308.316254 771.177612,285.723358 
	C771.444641,276.637817 773.666809,267.609741 775.005493,258.123474 
M936.979065,380.527924 
	C941.634766,374.035522 947.198669,368.000153 950.746765,360.950317 
	C957.053589,348.419098 959.256287,334.487823 959.808960,320.643372 
	C960.564758,301.708710 960.853882,282.659882 955.996094,264.044373 
	C951.847290,248.145340 944.838318,233.955612 930.358887,224.986313 
	C917.363220,216.936188 903.174683,214.410645 887.941345,216.920624 
	C868.474304,220.128204 854.850403,230.985016 846.100525,248.165573 
	C838.514709,263.060272 836.703064,279.515015 836.288879,295.778687 
	C835.917480,310.359314 837.496887,325.059601 839.144409,339.601898 
	C840.772766,353.975037 846.183777,367.126984 856.328003,377.747894 
	C876.467468,398.833649 913.378662,401.822266 936.979065,380.527924 
z"/>
<path fill="#03FFFE" opacity="1.000000" stroke="none" 
	d="
M541.000000,263.000000 
	C541.000000,321.809113 541.000366,380.118256 540.999451,438.427368 
	C540.999390,445.236084 539.331665,446.984955 532.685486,446.993469 
	C516.858704,447.013794 501.031921,447.015381 485.205170,446.992523 
	C478.778839,446.983215 477.001282,445.179993 477.001129,438.817841 
	C476.999329,369.013489 477.000641,299.209137 476.999084,229.404770 
	C476.998932,222.001099 476.992889,222.000610 469.596985,222.000137 
	C460.767303,221.999573 451.937531,222.029404 443.108002,221.991043 
	C435.508850,221.958038 433.005310,219.446655 433.001740,211.966629 
	C432.995453,198.638824 432.977692,185.310974 433.010162,171.983261 
	C433.024719,166.010254 435.034882,164.028503 441.053314,164.008759 
	C450.882446,163.976501 460.715179,163.847000 470.539520,164.067093 
	C475.173950,164.170929 477.076385,162.643265 477.092957,157.781570 
	C477.130188,146.852325 476.985229,135.851135 478.155151,125.013153 
	C480.087036,107.116455 485.088989,90.263184 499.580017,77.952003 
	C508.514221,70.361717 519.113037,66.403908 530.434692,63.979889 
	C552.292053,59.300129 574.457214,59.993568 596.585144,60.021084 
	C601.897156,60.027691 603.963623,62.193138 603.984558,67.622108 
	C604.032715,80.116730 604.026062,92.611748 603.988647,105.106453 
	C603.970947,111.017509 601.928955,112.905586 595.857178,113.008041 
	C584.680298,113.196632 573.533081,112.426247 562.468079,115.676956 
	C551.193481,118.989235 545.439087,126.679497 543.178772,137.308212 
	C541.754272,144.006973 541.682251,150.993103 540.999207,157.849899 
	C540.555115,162.308777 542.461670,164.106537 547.027893,164.062119 
	C563.352905,163.903275 579.680420,163.999405 596.006958,164.000229 
	C603.893066,164.000626 604.998779,165.075562 604.999634,172.747971 
	C605.001099,185.909164 605.000793,199.070374 604.999634,212.231567 
	C604.999023,219.390701 602.528625,221.956619 595.274109,221.982300 
	C579.280945,222.038895 563.282532,222.224289 547.296875,221.873550 
	C541.983582,221.756943 540.845947,223.831497 540.932251,228.515747 
	C541.140991,239.840408 541.000000,251.171494 541.000000,263.000000 
z"/>
<path fill="#03FFFE" opacity="1.000000" stroke="none" 
	d="
M699.999268,60.000000 
	C705.663879,60.000183 710.830444,59.917358 715.993103,60.024834 
	C720.776245,60.124409 722.796936,62.238651 722.994568,67.031853 
	C723.028870,67.863487 723.000000,68.697739 723.000000,69.530777 
	C723.000061,192.154404 723.000244,314.778046 722.999451,437.401672 
	C722.999390,445.425049 721.453308,446.997681 713.562073,446.999176 
	C698.234131,447.002045 682.906128,447.009064 667.578186,446.995911 
	C660.678589,446.989990 658.004517,444.337372 658.004211,437.469208 
	C657.998352,314.845581 657.998535,192.221939 658.003662,69.598312 
	C658.003967,62.686913 660.657532,60.015144 667.510681,60.004425 
	C678.173584,59.987743 688.836548,60.000004 699.999268,60.000000 
z"/>
<path fill="#03FEFE" opacity="1.000000" stroke="none" 
	d="
M60.884918,121.042252 
	C60.590454,115.168007 59.569931,109.219940 60.158031,103.435425 
	C61.261852,92.578239 62.891800,81.732613 65.088181,71.043526 
	C66.499893,64.173111 72.645950,60.021832 79.581589,60.019459 
	C166.888138,59.989616 254.194687,59.986233 341.501251,60.024082 
	C349.044250,60.027351 355.917236,65.696411 356.872589,73.366623 
	C358.555206,86.875725 360.874451,100.471230 360.719971,114.005363 
	C360.476898,135.299423 357.334106,156.364517 348.494507,176.178528 
	C347.546783,175.487778 347.115204,174.682739 346.442993,174.295471 
	C328.269867,163.825790 310.072052,153.398895 291.930328,142.544922 
	C292.569336,138.927902 293.057465,135.708679 293.764709,132.538361 
	C295.119934,126.463211 294.053009,125.002617 287.974396,125.002167 
	C236.712662,124.998367 185.450943,124.997101 134.189209,125.007782 
	C132.578003,125.008118 130.966827,125.145981 128.244034,125.270622 
	C129.247910,132.135818 130.185928,138.550690 130.717590,144.975067 
	C129.484375,144.925430 128.588531,145.054001 127.840797,144.779373 
	C113.367607,139.463409 98.947449,134.000900 84.437897,128.786972 
	C76.663170,125.993164 68.740707,123.610466 60.884918,121.042252 
z"/>
<path fill="#06F2FE" opacity="1.000000" stroke="none" 
	d="
M1516.105469,173.949768 
	C1520.046997,189.280563 1524.079346,204.588669 1527.909668,219.947128 
	C1534.660400,247.014801 1541.287964,274.113159 1547.517700,301.707214 
	C1546.712158,304.073029 1546.047485,305.929810 1546.045166,307.787476 
	C1545.987183,354.136169 1545.999023,400.484955 1545.998413,446.833740 
	C1541.268066,446.564972 1536.514160,446.487488 1531.822510,445.906494 
	C1530.479858,445.740204 1528.552734,444.344757 1528.188110,443.125793 
	C1522.988403,425.742279 1518.011108,408.292206 1513.252197,390.169922 
	C1513.682739,387.513824 1513.979248,385.546051 1513.979980,383.578156 
	C1514.004028,317.020355 1513.969849,250.462479 1514.089600,183.904892 
	C1514.095459,180.585312 1515.403687,177.268082 1516.105469,173.949768 
z"/>
<path fill="#05F7FE" opacity="1.000000" stroke="none" 
	d="
M60.932011,121.494644 
	C68.740707,123.610466 76.663170,125.993164 84.437897,128.786972 
	C98.947449,134.000900 113.367607,139.463409 127.840797,144.779373 
	C128.588531,145.054001 129.484375,144.925430 131.036804,145.173615 
	C131.955688,146.490128 131.974701,147.682861 132.368515,148.735367 
	C138.436691,164.952881 148.629944,178.325638 162.354797,188.533035 
	C178.685287,200.678284 198.050385,204.427078 218.367584,205.946823 
	C224.863998,206.955566 230.921234,207.931717 237.372986,208.942490 
	C245.508881,211.629517 253.250244,214.281921 261.351929,216.987946 
	C268.118896,220.369095 274.525543,223.696625 281.096344,227.320648 
	C284.794861,230.866989 288.276428,234.176987 291.884705,237.342514 
	C293.832947,239.051666 295.997833,240.513840 298.065002,242.087433 
	C301.985779,246.836548 305.906555,251.585663 309.562134,256.659271 
	C307.520874,256.612000 305.672089,256.443237 303.980103,255.836823 
	C288.036041,250.122665 272.110504,244.356384 256.195435,238.561737 
	C224.523697,227.030106 192.856262,215.486618 161.198181,203.917557 
	C141.860504,196.850845 122.570610,189.652451 103.206291,182.659866 
	C92.918289,178.944763 82.517395,175.542282 72.167458,171.998688 
	C69.113838,161.636169 65.678024,151.365692 63.152321,140.876053 
	C61.676632,134.747269 61.654930,128.268402 60.932011,121.494644 
z"/>
<path fill="#0BE0FD" opacity="1.000000" stroke="none" 
	d="
M1577.950317,298.895081 
	C1580.448975,288.628632 1582.821655,278.329559 1585.470581,268.102020 
	C1592.236938,241.976730 1599.128906,215.883942 1605.953491,189.773651 
	C1606.160767,188.980789 1606.178589,188.138321 1606.786743,187.498383 
	C1607.525757,189.799316 1607.966797,191.920593 1607.969482,194.042419 
	C1608.012451,228.489655 1608.000000,262.936951 1608.000000,297.384216 
	C1608.000000,325.840668 1607.962280,354.297272 1608.090698,382.753143 
	C1608.098633,384.517090 1609.413330,386.275177 1610.119995,388.036011 
	C1605.519653,405.443298 1600.915161,422.849487 1596.322144,440.258698 
	C1595.107544,444.862427 1592.089478,447.035797 1587.386108,447.001984 
	C1584.894409,446.984100 1582.402710,446.981079 1579.455566,446.444824 
	C1579.000000,399.174255 1579.014648,352.430206 1578.955322,305.686279 
	C1578.952515,303.422119 1578.300171,301.158813 1577.950317,298.895081 
z"/>
<path fill="#06F2FE" opacity="1.000000" stroke="none" 
	d="
M72.107727,172.375366 
	C82.517395,175.542282 92.918289,178.944763 103.206291,182.659866 
	C122.570610,189.652451 141.860504,196.850845 161.198181,203.917557 
	C192.856262,215.486618 224.523697,227.030106 256.195435,238.561737 
	C272.110504,244.356384 288.036041,250.122665 303.980103,255.836823 
	C305.672089,256.443237 307.520874,256.612000 309.708618,256.974182 
	C315.323578,266.070404 320.526825,275.176270 325.389160,284.640167 
	C323.439209,284.642029 321.767792,284.458588 320.230621,283.903473 
	C301.511841,277.143982 282.806915,270.345947 264.109924,263.526276 
	C232.637161,252.046722 201.172943,240.543686 169.704636,229.051926 
	C149.141495,221.542587 128.604248,213.961014 107.999916,206.566498 
	C100.376747,203.830673 92.594864,201.537109 84.885368,199.041840 
	C80.606239,190.278580 76.327118,181.515320 72.107727,172.375366 
z"/>
<path fill="#0DD8FD" opacity="1.000000" stroke="none" 
	d="
M1610.444946,387.824982 
	C1609.413330,386.275177 1608.098633,384.517090 1608.090698,382.753143 
	C1607.962280,354.297272 1608.000000,325.840668 1608.000000,297.384216 
	C1608.000000,262.936951 1608.012451,228.489655 1607.969482,194.042419 
	C1607.966797,191.920593 1607.525757,189.799316 1607.119141,187.287048 
	C1608.387817,180.743225 1609.372437,174.425476 1611.512451,168.527008 
	C1612.254150,166.482849 1615.769165,164.417328 1618.180542,164.203827 
	C1624.764160,163.620926 1631.434570,164.019638 1638.535400,164.555527 
	C1639.000000,199.862732 1638.982788,234.643982 1639.047241,269.425079 
	C1639.050781,271.299408 1639.739868,273.172516 1640.109741,275.046173 
	C1635.601074,292.312988 1631.085693,309.578064 1626.585205,326.846985 
	C1621.306641,347.100861 1616.041138,367.358154 1610.444946,387.824982 
z"/>
<path fill="#05F8FE" opacity="1.000000" stroke="none" 
	d="
M1516.061279,173.552826 
	C1515.403687,177.268082 1514.095459,180.585312 1514.089600,183.904892 
	C1513.969849,250.462479 1514.004028,317.020355 1513.979980,383.578156 
	C1513.979248,385.546051 1513.682739,387.513824 1513.208496,389.765930 
	C1509.947632,380.674072 1506.868408,371.337463 1504.086792,361.913025 
	C1499.269653,345.591644 1494.630859,329.217590 1489.931274,312.861664 
	C1488.591187,308.197998 1487.298340,303.520721 1486.254150,298.165344 
	C1486.682983,295.511322 1486.978638,293.541779 1486.979858,291.572021 
	C1487.006226,249.103546 1486.999634,206.635071 1486.999512,164.166595 
	C1493.242920,164.111252 1499.486206,164.027695 1505.729736,164.007874 
	C1513.150879,163.984299 1515.005371,165.658264 1516.061279,173.552826 
z"/>
<path fill="#18ABFC" opacity="1.000000" stroke="none" 
	d="
M1746.890625,270.954437 
	C1751.236572,254.341980 1755.586670,237.730591 1759.927368,221.116745 
	C1763.040649,209.199936 1766.141235,197.279831 1769.887207,185.439972 
	C1770.684692,187.486847 1770.979370,189.454880 1770.980103,191.423019 
	C1771.004028,256.646973 1770.969116,321.870972 1771.089722,387.094696 
	C1771.095825,390.413330 1772.405518,393.729553 1773.108398,397.046875 
	C1769.141846,410.533447 1764.975830,423.965790 1761.290649,437.528839 
	C1759.376831,444.572906 1759.136108,447.273926 1748.431396,446.443604 
	C1748.000000,389.638214 1748.011719,333.358337 1747.953247,277.078522 
	C1747.951172,275.036774 1747.260376,272.995789 1746.890625,270.954437 
z"/>
<path fill="#11C6FC" opacity="1.000000" stroke="none" 
	d="
M1689.895386,434.051086 
	C1683.598633,412.755280 1677.275391,391.467285 1671.021484,370.158875 
	C1669.238770,364.084808 1667.657349,357.951630 1666.293701,351.254578 
	C1667.069336,348.483124 1667.938599,346.303162 1667.941162,344.122192 
	C1668.014771,284.136963 1668.000000,224.151596 1668.000000,164.166290 
	C1669.878052,166.171371 1672.815918,167.880783 1673.470459,170.227173 
	C1680.188110,194.308365 1686.537598,218.492279 1692.972534,242.652145 
	C1693.097168,243.120392 1693.009644,243.645172 1692.665283,244.643768 
	C1691.873047,247.123016 1691.057373,249.101608 1691.055054,251.081146 
	C1690.987183,310.028259 1691.011108,368.975433 1690.953491,427.922577 
	C1690.951416,429.965729 1690.263550,432.008240 1689.895386,434.051086 
z"/>
<path fill="#1AA3FB" opacity="1.000000" stroke="none" 
	d="
M1773.431885,396.840942 
	C1772.405518,393.729553 1771.095825,390.413330 1771.089722,387.094696 
	C1770.969116,321.870972 1771.004028,256.646973 1770.980103,191.423019 
	C1770.979370,189.454880 1770.684692,187.486847 1770.212646,185.233170 
	C1771.281738,179.327011 1772.218262,173.534027 1774.285278,168.177277 
	C1775.030273,166.246475 1778.354736,164.607132 1780.743408,164.177765 
	C1784.411865,163.518280 1788.288818,164.019257 1792.538696,164.554749 
	C1793.000000,215.884415 1792.980835,266.687164 1793.077148,317.489685 
	C1793.080688,319.326172 1794.222046,321.160492 1794.833130,322.995789 
	C1793.043213,329.689911 1791.409546,336.430511 1789.433105,343.069061 
	C1784.402344,359.965820 1779.210449,376.814575 1774.117676,393.692963 
	C1773.836304,394.625214 1773.868896,395.652130 1773.431885,396.840942 
z"/>
<path fill="#13BFFC" opacity="1.000000" stroke="none" 
	d="
M1689.939941,434.446259 
	C1690.263550,432.008240 1690.951416,429.965729 1690.953491,427.922577 
	C1691.011108,368.975433 1690.987183,310.028259 1691.055054,251.081146 
	C1691.057373,249.101608 1691.873047,247.123016 1692.715332,245.053574 
	C1697.677979,261.480591 1702.279175,277.985931 1706.780273,294.518555 
	C1711.553223,312.049194 1716.235596,329.604492 1720.932373,347.155762 
	C1721.099609,347.780792 1720.996826,348.478119 1720.708008,349.738953 
	C1719.930786,352.349518 1719.065674,354.361664 1719.059937,356.376282 
	C1718.973267,386.528625 1719.000122,416.681305 1719.000122,446.833923 
	C1713.177368,446.889221 1707.354614,446.982117 1701.531860,446.989868 
	C1694.854980,446.998718 1692.519287,445.098206 1690.983765,438.598694 
	C1690.685791,437.337952 1690.319336,436.093414 1689.939941,434.446259 
z"/>
<path fill="#0FCEFD" opacity="1.000000" stroke="none" 
	d="
M1667.535645,164.097504 
	C1668.000000,224.151596 1668.014771,284.136963 1667.941162,344.122192 
	C1667.938599,346.303162 1667.069336,348.483124 1666.246704,350.854797 
	C1659.261108,328.408661 1652.640259,305.769073 1645.997070,283.136108 
	C1644.914307,279.447235 1643.732178,275.787506 1642.238037,270.956940 
	C1641.459961,272.879150 1641.097412,273.774994 1640.422241,274.858521 
	C1639.739868,273.172516 1639.050781,271.299408 1639.047241,269.425079 
	C1638.982788,234.643982 1639.000000,199.862732 1638.999390,164.624146 
	C1648.356323,164.120758 1657.713867,164.074738 1667.535645,164.097504 
z"/>
<path fill="#08E9FD" opacity="1.000000" stroke="none" 
	d="
M1577.621826,299.098724 
	C1578.300171,301.158813 1578.952515,303.422119 1578.955322,305.686279 
	C1579.014648,352.430206 1579.000000,399.174255 1578.999756,446.375671 
	C1568.308716,446.879608 1557.617798,446.926178 1546.462646,446.903259 
	C1545.999023,400.484955 1545.987183,354.136169 1546.045166,307.787476 
	C1546.047485,305.929810 1546.712158,304.073029 1547.450928,302.109283 
	C1550.555908,312.333221 1553.289062,322.660828 1555.996460,332.995209 
	C1557.680054,339.421417 1559.304565,345.863220 1561.010620,352.283356 
	C1561.242065,353.153656 1561.796021,353.938232 1562.652344,355.682678 
	C1567.694946,336.264740 1572.494141,317.783569 1577.621826,299.098724 
z"/>
<path fill="#16B4FC" opacity="1.000000" stroke="none" 
	d="
M1719.464355,446.902496 
	C1719.000122,416.681305 1718.973267,386.528625 1719.059937,356.376282 
	C1719.065674,354.361664 1719.930786,352.349518 1720.753662,350.144897 
	C1721.744263,351.515167 1722.377686,353.076752 1723.582275,356.046783 
	C1725.298340,350.453247 1726.764404,346.164154 1727.929443,341.794739 
	C1733.883057,319.464294 1739.763184,297.114227 1745.649292,274.765839 
	C1745.940308,273.660797 1746.046021,272.506958 1746.564209,271.165131 
	C1747.260376,272.995789 1747.951172,275.036774 1747.953247,277.078522 
	C1748.011719,333.358337 1748.000000,389.638214 1748.000610,446.375427 
	C1738.643677,446.878876 1729.286255,446.924988 1719.464355,446.902496 
z"/>
<path fill="#07EFFE" opacity="1.000000" stroke="none" 
	d="
M84.941490,199.397507 
	C92.594864,201.537109 100.376747,203.830673 107.999916,206.566498 
	C128.604248,213.961014 149.141495,221.542587 169.704636,229.051926 
	C201.172943,240.543686 232.637161,252.046722 264.109924,263.526276 
	C282.806915,270.345947 301.511841,277.143982 320.230621,283.903473 
	C321.767792,284.458588 323.439209,284.642029 325.440643,284.999451 
	C327.544830,290.401367 329.256622,295.802002 330.501465,301.601379 
	C328.575043,301.767761 327.031891,301.765411 325.668243,301.269501 
	C287.906036,287.536499 250.163986,273.748077 212.414505,259.980072 
	C179.655853,248.032318 146.905670,236.060989 114.115463,224.200439 
	C109.477097,222.522705 104.632805,221.414291 99.883827,220.042358 
	C94.921761,213.279297 89.959686,206.516235 84.941490,199.397507 
z"/>
<path fill="#1C9BFB" opacity="1.000000" stroke="none" 
	d="
M1795.006836,322.655640 
	C1794.222046,321.160492 1793.080688,319.326172 1793.077148,317.489685 
	C1792.980835,266.687164 1793.000000,215.884415 1793.000244,164.624298 
	C1800.024536,164.120392 1807.048706,164.073868 1814.536377,164.554581 
	C1815.000000,191.495697 1814.974365,217.909637 1815.045532,244.323303 
	C1815.051636,246.584869 1815.699707,248.844681 1816.049561,251.105316 
	C1814.368042,257.351074 1812.820679,263.636658 1810.979614,269.834991 
	C1805.777832,287.347656 1800.455322,304.824554 1795.006836,322.655640 
z"/>
<path fill="#03FDFE" opacity="1.000000" stroke="none" 
	d="
M1486.535278,164.097687 
	C1486.999634,206.635071 1487.006226,249.103546 1486.979858,291.572021 
	C1486.978638,293.541779 1486.682983,295.511322 1486.208984,297.765350 
	C1482.946899,288.660309 1479.896484,279.301910 1477.076660,269.874512 
	C1472.333984,254.018631 1467.728149,238.121735 1463.082642,222.236847 
	C1458.163452,205.415848 1453.253418,188.592117 1448.365112,171.762146 
	C1446.999268,167.059464 1449.174438,164.060760 1454.150757,164.025711 
	C1464.790405,163.950821 1475.430908,164.019135 1486.535278,164.097687 
z"/>
<path fill="#08ECFD" opacity="1.000000" stroke="none" 
	d="
M99.939346,220.389130 
	C104.632805,221.414291 109.477097,222.522705 114.115463,224.200439 
	C146.905670,236.060989 179.655853,248.032318 212.414505,259.980072 
	C250.163986,273.748077 287.906036,287.536499 325.668243,301.269501 
	C327.031891,301.765411 328.575043,301.767761 330.434387,302.000549 
	C331.869476,306.727631 332.904663,311.454346 333.506714,316.581970 
	C311.607513,309.274048 290.162018,301.507080 268.658600,293.903870 
	C264.200623,292.327637 259.527679,291.359344 254.953796,290.110870 
	C247.748260,282.799530 239.822937,276.405518 229.831650,273.496552 
	C223.313797,271.598816 216.507401,270.692017 209.032135,269.176605 
	C204.824127,268.654419 201.414215,268.296936 197.961395,267.586090 
	C196.451584,266.060760 195.162216,264.413513 193.490753,263.789185 
	C173.048294,256.153595 152.579147,248.586334 132.044403,241.203049 
	C127.128418,239.435516 121.945747,238.409729 116.885727,237.042801 
	C111.255440,231.607178 105.625160,226.171555 99.939346,220.389130 
z"/>
<path fill="#0ED3FD" opacity="1.000000" stroke="none" 
	d="
M250.889603,372.954468 
	C257.112701,365.073486 263.344910,357.197968 266.954651,347.193695 
	C278.184601,350.900909 288.693665,354.822693 299.264404,358.570648 
	C308.417877,361.816071 317.641327,364.864288 326.833832,367.999695 
	C322.116791,377.267181 317.399780,386.534668 312.160217,395.655579 
	C309.665741,394.690735 307.719940,393.801483 305.717865,393.065247 
	C287.447357,386.346497 269.167053,379.654388 250.889603,372.954468 
z"/>
<path fill="#0BE0FD" opacity="1.000000" stroke="none" 
	d="
M326.912781,367.618042 
	C317.641327,364.864288 308.417877,361.816071 299.264404,358.570648 
	C288.693665,354.822693 278.184601,350.900909 267.266602,347.006256 
	C267.589752,343.119263 268.683044,339.303375 268.909546,335.436707 
	C269.250671,329.612030 268.985840,323.751862 269.348022,317.460754 
	C271.626617,317.411194 273.614716,317.587250 275.432861,318.238068 
	C294.677765,325.127136 313.895630,332.091858 333.120941,339.035736 
	C331.077881,348.435944 329.034821,357.836151 326.912781,367.618042 
z"/>
<path fill="#11C5FC" opacity="1.000000" stroke="none" 
	d="
M250.587555,373.089600 
	C269.167053,379.654388 287.447357,386.346497 305.717865,393.065247 
	C307.719940,393.801483 309.665741,394.690735 311.845032,395.806000 
	C306.939758,402.660400 301.827148,409.217804 296.069275,415.766113 
	C272.656769,407.383514 249.889572,399.010040 227.122375,390.636566 
	C235.861084,386.186432 243.783264,380.650024 250.587555,373.089600 
z"/>
<path fill="#06F2FE" opacity="1.000000" stroke="none" 
	d="
M291.878418,142.964813 
	C310.072052,153.398895 328.269867,163.825790 346.442993,174.295471 
	C347.115204,174.682739 347.546783,175.487778 348.243439,176.481949 
	C344.827240,184.176071 341.258118,191.486374 337.179688,198.663437 
	C334.696991,197.315964 332.748993,196.057953 330.746124,194.894348 
	C314.129791,185.240814 297.503265,175.604736 281.031036,165.643799 
	C284.747620,157.871109 288.313019,150.417953 291.878418,142.964813 
z"/>
<path fill="#04FDFE" opacity="1.000000" stroke="none" 
	d="
M132.833435,312.999756 
	C128.561722,324.146545 124.001488,335.194855 120.149223,346.484772 
	C118.420044,351.552551 115.616379,353.912048 110.465714,354.263855 
	C105.635483,354.593750 101.787987,353.201660 99.935585,348.541107 
	C93.987427,333.575989 91.201393,318.165558 93.906212,302.053955 
	C94.363747,299.328583 94.657387,296.575623 95.457634,293.424255 
	C99.090652,294.673981 102.322197,296.280914 105.489342,298.006104 
	C114.617966,302.978424 123.720589,307.998474 132.833435,312.999756 
z"/>
<path fill="#08E9FD" opacity="1.000000" stroke="none" 
	d="
M333.467957,338.782532 
	C313.895630,332.091858 294.677765,325.127136 275.432861,318.238068 
	C273.614716,317.587250 271.626617,317.411194 269.298157,317.024902 
	C266.062073,307.367950 262.018066,298.337341 255.094208,290.419189 
	C259.527679,291.359344 264.200623,292.327637 268.658600,293.903870 
	C290.162018,301.507080 311.607513,309.274048 333.453674,316.990906 
	C333.827484,324.175720 333.821228,331.352539 333.467957,338.782532 
z"/>
<path fill="#14BAFC" opacity="1.000000" stroke="none" 
	d="
M226.816071,390.786499 
	C249.889572,399.010040 272.656769,407.383514 295.763855,415.904236 
	C291.291260,420.289246 286.478760,424.527039 281.260590,428.459045 
	C280.361694,427.763245 279.927582,427.211914 279.366760,427.006470 
	C257.592682,419.029266 235.780243,411.155548 214.046249,403.070953 
	C209.876495,401.519867 206.009216,399.155640 202.002411,397.166504 
	C210.171524,395.089813 218.340637,393.013123 226.816071,390.786499 
z"/>
<path fill="#1D94FB" opacity="1.000000" stroke="none" 
	d="
M1816.375244,250.906586 
	C1815.699707,248.844681 1815.051636,246.584869 1815.045532,244.323303 
	C1814.974365,217.909637 1815.000000,191.495697 1815.000244,164.624435 
	C1821.077148,164.444458 1827.151733,164.784393 1833.230957,164.981018 
	C1838.873657,165.163513 1841.283936,168.228088 1839.675171,173.666672 
	C1833.132935,195.785294 1826.528931,217.885696 1819.941895,239.991089 
	C1818.876099,243.567688 1817.781982,247.135803 1816.375244,250.906586 
z"/>
<path fill="#07F1FE" opacity="1.000000" stroke="none" 
	d="
M132.992249,312.679443 
	C123.720589,307.998474 114.617966,302.978424 105.489342,298.006104 
	C102.322197,296.280914 99.090652,294.673981 95.527542,293.007721 
	C97.885262,285.418640 100.603951,277.834869 103.826035,270.360382 
	C112.620102,275.343079 120.948059,280.154572 129.188126,285.112152 
	C134.541870,288.333191 139.767517,291.767090 145.050552,295.105621 
	C141.084045,300.856781 137.117554,306.607941 132.992249,312.679443 
z"/>
<path fill="#16B2FC" opacity="1.000000" stroke="none" 
	d="
M201.544067,397.097931 
	C206.009216,399.155640 209.876495,401.519867 214.046249,403.070953 
	C235.780243,411.155548 257.592682,419.029266 279.366760,427.006470 
	C279.927582,427.211914 280.361694,427.763245 280.925629,428.493408 
	C278.574860,430.478394 276.153381,432.123230 273.091766,433.751587 
	C268.988678,432.203552 265.601288,430.464539 262.051270,429.172119 
	C220.666733,414.106171 179.251663,399.124023 137.879471,384.024323 
	C136.388824,383.480225 135.256683,381.953857 133.957443,380.885284 
	C137.316269,381.259247 141.084198,380.777832 143.963303,382.154816 
	C156.622787,388.209381 169.632324,393.158997 183.445419,395.622437 
	C189.225342,396.653229 195.199753,396.593353 201.544067,397.097931 
z"/>
<path fill="#09E7FD" opacity="1.000000" stroke="none" 
	d="
M280.879852,165.963348 
	C297.503265,175.604736 314.129791,185.240814 330.746124,194.894348 
	C332.748993,196.057953 334.696991,197.315964 336.861084,198.816910 
	C334.593750,203.004745 332.135803,206.905899 329.211792,210.642792 
	C309.879944,199.503571 291.014130,188.528580 272.140869,177.183945 
	C275.048889,173.197327 277.964355,169.580338 280.879852,165.963348 
z"/>
<path fill="#18ABFC" opacity="1.000000" stroke="none" 
	d="
M123.166534,391.000977 
	C124.220230,389.062653 125.273933,387.124329 126.839149,385.333588 
	C132.724854,387.651855 138.046539,389.965088 143.482605,391.967834 
	C163.881638,399.483307 184.315994,406.902985 204.740982,414.347961 
	C225.787033,422.019318 246.837570,429.678345 267.886139,437.342773 
	C265.533295,438.557556 263.180450,439.772369 260.133453,440.874146 
	C256.545135,439.528748 253.699936,438.161957 250.748840,437.085571 
	C230.674286,429.763947 210.584625,422.483521 190.485870,415.228516 
	C168.053833,407.131226 145.606964,399.075043 123.166534,391.000977 
z"/>
<path fill="#19A7FC" opacity="1.000000" stroke="none" 
	d="
M123.098022,391.434448 
	C145.606964,399.075043 168.053833,407.131226 190.485870,415.228516 
	C210.584625,422.483521 230.674286,429.763947 250.748840,437.085571 
	C253.699936,438.161957 256.545135,439.528748 259.771912,440.906433 
	C257.506927,442.082275 254.909363,443.112885 251.597076,444.064880 
	C235.817398,438.339935 220.776306,432.628845 205.681625,427.063080 
	C185.135315,419.487244 164.576202,411.944000 143.962524,404.554260 
	C137.125809,402.103333 130.103668,400.169556 123.166306,397.999390 
	C123.120705,395.955566 123.075104,393.911774 123.098022,391.434448 
z"/>
<path fill="#17AFFC" opacity="1.000000" stroke="none" 
	d="
M268.147156,437.184143 
	C246.837570,429.678345 225.787033,422.019318 204.740982,414.347961 
	C184.315994,406.902985 163.881638,399.483307 143.482605,391.967834 
	C138.046539,389.965088 132.724854,387.651855 127.150948,385.186859 
	C129.043884,383.588654 131.136551,382.284760 133.593323,380.933075 
	C135.256683,381.953857 136.388824,383.480225 137.879471,384.024323 
	C179.251663,399.124023 220.666733,414.106171 262.051270,429.172119 
	C265.601288,430.464539 268.988678,432.203552 272.778137,433.893188 
	C271.539185,435.042694 269.973663,436.034088 268.147156,437.184143 
z"/>
<path fill="#0AE1FD" opacity="1.000000" stroke="none" 
	d="
M145.356750,294.965271 
	C139.767517,291.767090 134.541870,288.333191 129.188126,285.112152 
	C120.948059,280.154572 112.620102,275.343079 104.138702,270.182983 
	C106.076378,265.677124 108.204773,261.457886 110.833786,257.354065 
	C126.846222,266.439087 142.358047,275.408722 157.869873,284.378387 
	C153.800903,287.860596 149.731934,291.342773 145.356750,294.965271 
z"/>
<path fill="#1AA3FB" opacity="1.000000" stroke="none" 
	d="
M123.205162,398.342407 
	C130.103668,400.169556 137.125809,402.103333 143.962524,404.554260 
	C164.576202,411.944000 185.135315,419.487244 205.681625,427.063080 
	C220.776306,432.628845 235.817398,438.339935 251.253006,444.173950 
	C248.424484,445.532837 245.225311,446.704071 241.476410,447.457275 
	C231.910645,443.391327 222.973175,439.532623 213.862686,436.138245 
	C193.216248,428.445801 172.518188,420.888031 151.770172,413.473969 
	C144.003632,410.698700 136.040039,408.474792 128.166275,405.999512 
	C126.525520,403.561493 124.884773,401.123444 123.205162,398.342407 
z"/>
<path fill="#0BE0FD" opacity="1.000000" stroke="none" 
	d="
M272.148346,177.553558 
	C291.014130,188.528580 309.879944,199.503571 328.898224,210.791504 
	C327.600098,213.313156 326.149506,215.521851 324.077820,217.750336 
	C303.932129,206.500427 284.407471,195.230774 265.029175,183.652069 
	C267.499817,181.413193 269.824066,179.483383 272.148346,177.553558 
z"/>
<path fill="#1B9FFB" opacity="1.000000" stroke="none" 
	d="
M128.197235,406.330048 
	C136.040039,408.474792 144.003632,410.698700 151.770172,413.473969 
	C172.518188,420.888031 193.216248,428.445801 213.862686,436.138245 
	C222.973175,439.532623 231.910645,443.391327 241.049850,447.426025 
	C238.045822,448.531372 234.918610,449.249908 231.329071,449.563141 
	C228.889206,448.056305 227.017761,446.664307 224.917984,445.897369 
	C198.139526,436.116364 171.337341,426.399902 144.510239,416.753174 
	C142.077927,415.878540 139.431778,415.598602 136.884949,415.042480 
	C133.999359,412.248505 131.113770,409.454559 128.197235,406.330048 
z"/>
<path fill="#0FCEFD" opacity="1.000000" stroke="none" 
	d="
M317.119598,225.038010 
	C314.968201,227.298401 312.816833,229.558807 310.204468,231.648834 
	C289.213989,219.499344 268.684479,207.520233 248.450134,195.322571 
	C251.213348,193.588104 253.681442,192.072174 256.524048,190.716156 
	C266.060425,196.134171 275.200256,201.431046 284.389771,206.640335 
	C295.277374,212.812317 306.207764,218.908813 317.119598,225.038010 
z"/>
<path fill="#1C9BFB" opacity="1.000000" stroke="none" 
	d="
M137.026947,415.348358 
	C139.431778,415.598602 142.077927,415.878540 144.510239,416.753174 
	C171.337341,426.399902 198.139526,436.116364 224.917984,445.897369 
	C227.017761,446.664307 228.889206,448.056305 230.932327,449.495819 
	C226.633255,450.213226 222.268616,450.592621 217.385025,450.564636 
	C215.820969,449.397064 214.882004,448.346741 213.714981,447.919861 
	C193.160492,440.401093 172.584534,432.940582 151.978897,425.563354 
	C151.142319,425.263855 149.968887,425.905182 148.952408,426.108154 
	C145.024582,422.623505 141.096771,419.138885 137.026947,415.348358 
z"/>
<path fill="#08E9FD" opacity="1.000000" stroke="none" 
	d="
M117.027359,237.348602 
	C121.945747,238.409729 127.128418,239.435516 132.044403,241.203049 
	C152.579147,248.586334 173.048294,256.153595 193.490753,263.789185 
	C195.162216,264.413513 196.451584,266.060760 197.562286,267.609314 
	C196.141296,268.005737 195.076523,268.025513 193.636688,267.871368 
	C188.508438,267.134766 183.755203,266.572083 178.647156,265.850647 
	C171.529327,263.798035 164.766342,261.904144 157.682724,259.860291 
	C148.852127,255.448715 140.328506,251.214111 131.839554,246.911087 
	C128.815384,245.378159 125.875313,243.679321 122.896851,242.056213 
	C120.987556,240.588943 119.078270,239.121674 117.027359,237.348602 
z"/>
<path fill="#1D94FB" opacity="1.000000" stroke="none" 
	d="
M149.093109,426.416382 
	C149.968887,425.905182 151.142319,425.263855 151.978897,425.563354 
	C172.584534,432.940582 193.160492,440.401093 213.714981,447.919861 
	C214.882004,448.346741 215.820969,449.397064 216.931412,450.495148 
	C191.177826,451.879211 169.004791,442.677704 149.093109,426.416382 
z"/>
<path fill="#0DD8FD" opacity="1.000000" stroke="none" 
	d="
M158.129440,284.208923 
	C142.358047,275.408722 126.846222,266.439087 111.142700,257.181580 
	C112.397194,255.003128 113.843369,253.112518 115.915894,251.225800 
	C122.266434,254.543579 127.975983,257.883057 133.718018,261.165741 
	C144.172852,267.142670 154.646957,273.085846 165.113007,279.043121 
	C162.871674,280.708557 160.630341,282.374023 158.129440,284.208923 
z"/>
<path fill="#0DD8FD" opacity="1.000000" stroke="none" 
	d="
M264.882812,183.961121 
	C284.407471,195.230774 303.932129,206.500427 323.780579,217.910477 
	C322.618225,219.645966 321.132141,221.241058 319.195435,222.658630 
	C318.112549,221.960068 317.538391,221.339111 316.839478,220.932709 
	C302.230103,212.438004 287.562439,204.042313 273.013733,195.445267 
	C268.837555,192.977493 264.996887,189.941956 261.291626,187.029724 
	C262.681549,185.915497 263.782166,184.938293 264.882812,183.961121 
z"/>
<path fill="#13BFFC" opacity="1.000000" stroke="none" 
	d="
M280.932159,227.024155 
	C274.525543,223.696625 268.118896,220.369095 261.347900,216.630554 
	C258.005157,213.820160 255.107513,211.310944 252.028931,209.047897 
	C247.742752,205.897171 243.321106,202.930740 239.132141,199.578934 
	C240.859375,198.807434 242.411926,198.342422 244.111618,198.194199 
	C244.889145,199.028519 245.463486,199.641586 246.158310,200.049347 
	C257.983032,206.988403 269.787262,213.963608 281.671082,220.800323 
	C290.095856,225.647095 298.632629,230.299210 307.119415,235.038208 
	C305.980255,235.956543 304.841095,236.874878 303.086945,237.771622 
	C297.721100,235.038422 293.034943,232.203186 288.190857,229.669830 
	C285.928802,228.486786 283.361237,227.887848 280.932159,227.024155 
z"/>
<path fill="#11C6FC" opacity="1.000000" stroke="none" 
	d="
M122.841858,242.359863 
	C125.875313,243.679321 128.815384,245.378159 131.839554,246.911087 
	C140.328506,251.214111 148.852127,255.448715 157.717987,260.208313 
	C159.299515,261.947723 160.358658,263.439453 161.780807,264.385437 
	C166.803574,267.726410 171.950653,270.880493 177.050583,274.105438 
	C175.135681,274.786346 173.220779,275.467255 170.615356,276.072876 
	C158.529572,269.292633 147.102478,262.640930 135.753006,255.859314 
	C130.408615,252.665909 125.213417,249.222855 119.950615,245.892944 
	C120.896034,244.816452 121.841454,243.739975 122.841858,242.359863 
z"/>
<path fill="#11C5FC" opacity="1.000000" stroke="none" 
	d="
M307.399231,234.923218 
	C298.632629,230.299210 290.095856,225.647095 281.671082,220.800323 
	C269.787262,213.963608 257.983032,206.988403 246.158310,200.049347 
	C245.463486,199.641586 244.889145,199.028519 244.255936,197.911362 
	C245.553757,196.721542 246.854385,196.131332 248.154999,195.541107 
	C268.684479,207.520233 289.213989,219.499344 309.895874,231.793213 
	C309.258545,233.008041 308.468781,233.908127 307.399231,234.923218 
z"/>
<path fill="#0FCEFD" opacity="1.000000" stroke="none" 
	d="
M119.645416,246.034058 
	C125.213417,249.222855 130.408615,252.665909 135.753006,255.859314 
	C147.102478,262.640930 158.529572,269.292633 170.279434,276.186523 
	C169.027527,277.246613 167.421036,278.117767 165.463791,279.016022 
	C154.646957,273.085846 144.172852,267.142670 133.718018,261.165741 
	C127.975983,257.883057 122.266434,254.543579 116.218285,251.089737 
	C117.042961,249.358231 118.191589,247.766693 119.645416,246.034058 
z"/>
<path fill="#0ED3FD" opacity="1.000000" stroke="none" 
	d="
M261.002380,187.166733 
	C264.996887,189.941956 268.837555,192.977493 273.013733,195.445267 
	C287.562439,204.042313 302.230103,212.438004 316.839478,220.932709 
	C317.538391,221.339111 318.112549,221.960068 318.895935,222.794891 
	C318.580566,223.684662 318.114105,224.260651 317.383606,224.937332 
	C306.207764,218.908813 295.277374,212.812317 284.389771,206.640335 
	C275.200256,201.431046 266.060425,196.134171 256.794861,190.495941 
	C258.128204,189.132797 259.565308,188.149765 261.002380,187.166733 
z"/>
<path fill="#13BFFC" opacity="1.000000" stroke="none" 
	d="
M177.420685,274.061279 
	C171.950653,270.880493 166.803574,267.726410 161.780807,264.385437 
	C160.358658,263.439453 159.299515,261.947723 158.038605,260.358276 
	C164.766342,261.904144 171.529327,263.798035 178.684143,266.197388 
	C180.398132,268.506653 181.720291,270.310455 183.042450,272.114227 
	C181.291901,272.748505 179.541336,273.382782 177.420685,274.061279 
z"/>
<path fill="#14BAFC" opacity="1.000000" stroke="none" 
	d="
M281.096344,227.320648 
	C283.361237,227.887848 285.928802,228.486786 288.190857,229.669830 
	C293.034943,232.203186 297.721100,235.038422 302.788330,237.900589 
	C301.629059,239.305115 300.153412,240.559082 298.371399,241.950241 
	C295.997833,240.513840 293.832947,239.051666 291.884705,237.342514 
	C288.276428,234.176987 284.794861,230.866989 281.096344,227.320648 
z"/>
<path fill="#14BAFC" opacity="1.000000" stroke="none" 
	d="
M183.456009,272.066895 
	C181.720291,270.310455 180.398132,268.506653 179.038971,266.356140 
	C183.755203,266.572083 188.508438,267.134766 193.631866,268.168884 
	C194.000488,269.038147 193.998886,269.435974 193.997284,269.833771 
	C190.621384,270.562347 187.245468,271.290955 183.456009,272.066895 
z"/>
<path fill="#17AFFC" opacity="1.000000" stroke="none" 
	d="
M194.458496,269.902283 
	C193.998886,269.435974 194.000488,269.038147 194.006912,268.342834 
	C195.076523,268.025513 196.141296,268.005737 197.605194,267.962708 
	C201.414215,268.296936 204.824127,268.654419 208.658890,269.040771 
	C204.362396,269.370056 199.641052,269.670441 194.458496,269.902283 
z"/>
<path opacity="1.000000" stroke="none" 
	d="
M936.721802,380.776978 
	C913.378662,401.822266 876.467468,398.833649 856.328003,377.747894 
	C846.183777,367.126984 840.772766,353.975037 839.144409,339.601898 
	C837.496887,325.059601 835.917480,310.359314 836.288879,295.778687 
	C836.703064,279.515015 838.514709,263.060272 846.100525,248.165573 
	C854.850403,230.985016 868.474304,220.128204 887.941345,216.920624 
	C903.174683,214.410645 917.363220,216.936188 930.358887,224.986313 
	C944.838318,233.955612 951.847290,248.145340 955.996094,264.044373 
	C960.853882,282.659882 960.564758,301.708710 959.808960,320.643372 
	C959.256287,334.487823 957.053589,348.419098 950.746765,360.950317 
	C947.198669,368.000153 941.634766,374.035522 936.721802,380.776978 
z"/>
<path opacity="1.000000" stroke="none" 
	d="
M261.291626,187.029724 
	C259.565308,188.149765 258.128204,189.132797 256.420349,190.336029 
	C253.681442,192.072174 251.213348,193.588104 248.450134,195.322571 
	C246.854385,196.131332 245.553757,196.721542 244.108810,197.594589 
	C242.411926,198.342422 240.859375,198.807434 238.754639,199.627090 
	C236.135223,200.710098 234.067978,201.438461 231.598434,202.112839 
	C229.821259,202.375076 228.424072,202.617004 227.076065,203.022522 
	C224.013992,203.943710 220.976120,204.945328 217.928406,205.914246 
	C198.050385,204.427078 178.685287,200.678284 162.354797,188.533035 
	C148.629944,178.325638 138.436691,164.952881 132.368515,148.735367 
	C131.974701,147.682861 131.955688,146.490128 131.443146,145.164093 
	C130.185928,138.550690 129.247910,132.135818 128.244034,125.270622 
	C130.966827,125.145981 132.578003,125.008118 134.189209,125.007782 
	C185.450943,124.997101 236.712662,124.998367 287.974396,125.002167 
	C294.053009,125.002617 295.119934,126.463211 293.764709,132.538361 
	C293.057465,135.708679 292.569336,138.927902 291.930328,142.544922 
	C288.313019,150.417953 284.747620,157.871109 281.031036,165.643799 
	C277.964355,169.580338 275.048889,173.197327 272.140869,177.183929 
	C269.824066,179.483383 267.499817,181.413193 265.029175,183.652054 
	C263.782166,184.938293 262.681549,185.915497 261.291626,187.029724 
z"/>
<path fill="#14BAFC" opacity="1.000000" stroke="none" 
	d="
M232.000748,202.166824 
	C234.067978,201.438461 236.135223,200.710098 238.579956,199.933578 
	C243.321106,202.930740 247.742752,205.897171 252.028931,209.047897 
	C255.107513,211.310944 258.005157,213.820160 260.987549,216.576935 
	C253.250244,214.281921 245.508881,211.629517 237.341095,208.607605 
	C235.276703,206.214325 233.638718,204.190582 232.000748,202.166824 
z"/>
<path fill="#17AFFC" opacity="1.000000" stroke="none" 
	d="
M231.598434,202.112839 
	C233.638718,204.190582 235.276703,206.214325 236.946579,208.572968 
	C230.921234,207.931717 224.863998,206.955566 218.367584,205.946808 
	C220.976120,204.945328 224.013992,203.943710 227.076065,203.022522 
	C228.424072,202.617004 229.821259,202.375076 231.598434,202.112839 
z"/>
</svg>